<svg width="17" height="16" viewBox="0 0 17 16" fill="none" xmlns="http://www.w3.org/2000/svg">
<path d="M15.3 3.55556V1.77778H1.7V14.2222H15.3V12.4444H8.5C8.27457 12.4444 8.05837 12.3508 7.89896 12.1841C7.73955 12.0174 7.65 11.7913 7.65 11.5556V4.44444C7.65 4.2087 7.73955 3.9826 7.89896 3.81591C8.05837 3.64921 8.27457 3.55556 8.5 3.55556H15.3ZM0.85 0H16.15C16.3754 0 16.5916 0.0936505 16.751 0.260349C16.9104 0.427048 17 0.653141 17 0.888889V15.1111C17 15.3469 16.9104 15.573 16.751 15.7397C16.5916 15.9064 16.3754 16 16.15 16H0.85C0.624566 16 0.408365 15.9064 0.248959 15.7397C0.0895533 15.573 0 15.3469 0 15.1111V0.888889C0 0.653141 0.0895533 0.427048 0.248959 0.260349C0.408365 0.0936505 0.624566 0 0.85 0ZM9.35 5.33333V10.6667H15.3V5.33333H9.35ZM11.05 7.11111H13.6V8.88889H11.05V7.11111Z" fill="white"/>
</svg>
