<svg width="24" height="24" viewBox="0 0 24 24" fill="none" xmlns="http://www.w3.org/2000/svg">
<path d="M4 2H20C20.2652 2 20.5196 2.10536 20.7071 2.29289C20.8946 2.48043 21 2.73478 21 3V21C21 21.2652 20.8946 21.5196 20.7071 21.7071C20.5196 21.8946 20.2652 22 20 22H4C3.73478 22 3.48043 21.8946 3.29289 21.7071C3.10536 21.5196 3 21.2652 3 21V3C3 2.73478 3.10536 2.48043 3.29289 2.29289C3.48043 2.10536 3.73478 2 4 2V2ZM5 4V20H19V4H5ZM7 6H17V10H7V6ZM7 12H9V14H7V12ZM7 16H9V18H7V16ZM11 12H13V14H11V12ZM11 16H13V18H11V16ZM15 12H17V18H15V12Z" fill="url(#paint0_linear_112_1040)"/>
<defs>
<linearGradient id="paint0_linear_112_1040" x1="12" y1="2" x2="26.4195" y2="14.9776" gradientUnits="userSpaceOnUse">
<stop stop-color="#CACFDB"/>
<stop offset="1" stop-color="#CACFDB"/>
</linearGradient>
</defs>
</svg>
