<svg width="40" height="40" viewBox="0 0 40 40" fill="none" xmlns="http://www.w3.org/2000/svg">
<rect width="40" height="40" rx="4" fill="#F8F4FE"/>
<g clip-path="url(#clip0_9_438)">
<path d="M21.1111 8.88889V10H28.8889V12.2222H21.1111V27.7778H25.5555V30H14.4444V27.7778H18.8889V12.2222H11.1111V10H18.8889V8.88889H21.1111ZM12.2222 13.7144L15.3644 16.8578C16.1689 17.6611 16.6667 18.7722 16.6667 20C16.6667 22.4556 14.6778 24.4444 12.2222 24.4444C9.76666 24.4444 7.77777 22.4556 7.77777 20C7.77777 18.7722 8.27555 17.6611 9.07999 16.8578L12.2222 13.7144ZM27.7778 13.7144L30.92 16.8578C31.7244 17.6611 32.2222 18.7722 32.2222 20C32.2222 22.4556 30.2333 24.4444 27.7778 24.4444C25.3222 24.4444 23.3333 22.4556 23.3333 20C23.3333 18.7722 23.8311 17.6611 24.6356 16.8578L27.7778 13.7144ZM12.2222 16.8578L10.6511 18.4289C10.2355 18.8444 9.99999 19.4 9.99999 20C9.99999 21.2278 10.9944 22.2222 12.2222 22.2222C13.45 22.2222 14.4444 21.2278 14.4444 20C14.4444 19.4 14.2089 18.8444 13.7933 18.4289L12.2222 16.8578ZM27.7778 16.8578L26.2067 18.4289C25.7911 18.8444 25.5555 19.4 25.5555 20C25.5555 21.2278 26.55 22.2222 27.7778 22.2222C29.0056 22.2222 30 21.2278 30 20C30 19.4 29.7644 18.8444 29.3489 18.4289L27.7778 16.8578Z" fill="url(#paint0_linear_9_438)"/>
</g>
<defs>
<linearGradient id="paint0_linear_9_438" x1="20" y1="8.88889" x2="35.1421" y2="26.4219" gradientUnits="userSpaceOnUse">
<stop stop-color="#7B36FD"/>
<stop offset="1" stop-color="#AA5FCF"/>
</linearGradient>
<clipPath id="clip0_9_438">
<rect width="26.6667" height="26.6667" fill="white" transform="translate(6.66666 6.66666)"/>
</clipPath>
</defs>
</svg>
