<svg width="40" height="40" viewBox="0 0 40 40" fill="none" xmlns="http://www.w3.org/2000/svg">
<rect width="40" height="40" rx="4" fill="#F8F4FE"/>
<g clip-path="url(#clip0_9_448)">
<path d="M28.8888 29.2589V31.1111H26.6666V29.63L18.4243 31.0033C18.3448 31.0165 18.2633 31.0123 18.1856 30.9909C18.1078 30.9694 18.0357 30.9313 17.9742 30.8792C17.9126 30.8271 17.8632 30.7622 17.8292 30.689C17.7953 30.6159 17.7777 30.5362 17.7777 30.4555V28.8889H13.3332V31.1111H11.111V28.8889H9.9999C9.70522 28.8889 9.4226 28.7718 9.21423 28.5634C9.00586 28.3551 8.88879 28.0724 8.88879 27.7778V11.1111C8.88879 10.8164 9.00586 10.5338 9.21423 10.3254C9.4226 10.1171 9.70522 9.99999 9.9999 9.99999H17.7777V8.43332C17.7777 8.35268 17.7953 8.27301 17.8292 8.19985C17.8632 8.12669 17.9126 8.06179 17.9742 8.00967C18.0357 7.95754 18.1078 7.91944 18.1856 7.898C18.2633 7.87657 18.3448 7.87232 18.4243 7.88554L30.1821 9.84554C30.4416 9.88868 30.6773 10.0224 30.8474 10.223C31.0175 10.4237 31.1109 10.6781 31.111 10.9411V13.3333H32.2221V15.5555H31.111V23.3333H32.2221V25.5555H31.111V27.9478C31.1109 28.2108 31.0175 28.4652 30.8474 28.6658C30.6773 28.8664 30.4416 29.0002 30.1821 29.0433L28.8888 29.2589ZM11.111 12.2222V26.6667H17.7777V12.2222H11.111ZM19.9999 28.4889L28.8888 27.0067V11.8822L19.9999 10.4011V28.4878V28.4889ZM24.9999 22.2222C24.0799 22.2222 23.3332 20.9778 23.3332 19.4444C23.3332 17.9111 24.0799 16.6667 24.9999 16.6667C25.9199 16.6667 26.6666 17.9111 26.6666 19.4444C26.6666 20.9778 25.9199 22.2222 24.9999 22.2222Z" fill="url(#paint0_linear_9_448)"/>
</g>
<defs>
<linearGradient id="paint0_linear_9_448" x1="20.5555" y1="7.87802" x2="37.3989" y2="24.7941" gradientUnits="userSpaceOnUse">
<stop stop-color="#7B36FD"/>
<stop offset="1" stop-color="#AA5FCF"/>
</linearGradient>
<clipPath id="clip0_9_448">
<rect width="26.6667" height="26.6667" fill="white" transform="translate(6.66663 6.66666)"/>
</clipPath>
</defs>
</svg>
