<svg width="40" height="40" viewBox="0 0 40 40" fill="none" xmlns="http://www.w3.org/2000/svg">
<rect width="40" height="40" rx="4" fill="#F8F4FE"/>
<path d="M26.5 14.5833H29.75C30.0373 14.5833 30.3128 14.6975 30.516 14.9006C30.7192 15.1038 30.8333 15.3793 30.8333 15.6667V28.6667C30.8333 28.954 30.7192 29.2295 30.516 29.4327C30.3128 29.6359 30.0373 29.75 29.75 29.75H10.25C9.96264 29.75 9.68709 29.6359 9.48393 29.4327C9.28076 29.2295 9.16663 28.954 9.16663 28.6667V11.3333C9.16663 11.046 9.28076 10.7705 9.48393 10.5673C9.68709 10.3641 9.96264 10.25 10.25 10.25H26.5V14.5833ZM11.3333 16.75V27.5833H28.6666V16.75H11.3333ZM11.3333 12.4167V14.5833H24.3333V12.4167H11.3333ZM23.25 21.0833H26.5V23.25H23.25V21.0833Z" fill="url(#paint0_linear_193_2)"/>
<defs>
<linearGradient id="paint0_linear_193_2" x1="20" y1="10.25" x2="34.059" y2="25.8712" gradientUnits="userSpaceOnUse">
<stop stop-color="#7B36FD"/>
<stop offset="1" stop-color="#AA5FCF"/>
</linearGradient>
</defs>
</svg>
