<svg width="26" height="26" viewBox="0 0 26 26" fill="none" xmlns="http://www.w3.org/2000/svg">
<path d="M19.5 7.58333H22.75C23.0373 7.58333 23.3128 7.69747 23.516 7.90063C23.7192 8.1038 23.8333 8.37935 23.8333 8.66667V21.6667C23.8333 21.954 23.7192 22.2295 23.516 22.4327C23.3128 22.6359 23.0373 22.75 22.75 22.75H3.24996C2.96264 22.75 2.68709 22.6359 2.48393 22.4327C2.28076 22.2295 2.16663 21.954 2.16663 21.6667V4.33333C2.16663 4.04602 2.28076 3.77047 2.48393 3.5673C2.68709 3.36414 2.96264 3.25 3.24996 3.25H19.5V7.58333ZM4.33329 9.75V20.5833H21.6666V9.75H4.33329ZM4.33329 5.41667V7.58333H17.3333V5.41667H4.33329ZM16.25 14.0833H19.5V16.25H16.25V14.0833Z" fill="url(#paint0_linear_94_495)"/>
<defs>
<linearGradient id="paint0_linear_94_495" x1="13" y1="3.25" x2="27.059" y2="18.8712" gradientUnits="userSpaceOnUse">
<stop stop-color="#7B36FD"/>
<stop offset="1" stop-color="#AA5FCF"/>
</linearGradient>
</defs>
</svg>
