<svg width="40" height="40" viewBox="0 0 40 40" fill="none" xmlns="http://www.w3.org/2000/svg">
<rect width="40" height="40" rx="4" fill="#F8F4FE"/>
<g clip-path="url(#clip0_9_329)">
<path d="M25 24C26.657 24 28 25.343 28 27C28 28.657 26.657 30 25 30C23.343 30 22 28.657 22 27C22 25.343 23.343 24 25 24ZM15 20C17.21 20 19 21.79 19 24C19 26.21 17.21 28 15 28C12.79 28 11 26.21 11 24C11 21.79 12.79 20 15 20ZM25 26C24.448 26 24 26.448 24 27C24 27.552 24.448 28 25 28C25.552 28 26 27.552 26 27C26 26.448 25.552 26 25 26ZM15 22C13.895 22 13 22.895 13 24C13 25.105 13.895 26 15 26C16.105 26 17 25.105 17 24C17 22.895 16.105 22 15 22ZM23.5 10C26.538 10 29 12.462 29 15.5C29 18.538 26.538 21 23.5 21C20.462 21 18 18.538 18 15.5C18 12.462 20.462 10 23.5 10ZM23.5 12C21.567 12 20 13.567 20 15.5C20 17.433 21.567 19 23.5 19C25.433 19 27 17.433 27 15.5C27 13.567 25.433 12 23.5 12Z" fill="url(#paint0_linear_9_329)"/>
</g>
<defs>
<linearGradient id="paint0_linear_9_329" x1="20" y1="10" x2="34.4195" y2="22.9776" gradientUnits="userSpaceOnUse">
<stop stop-color="#7B36FD"/>
<stop offset="1" stop-color="#AA5FCF"/>
</linearGradient>
<clipPath id="clip0_9_329">
<rect width="26.6667" height="26.6667" fill="white" transform="translate(6.66663 6.66669)"/>
</clipPath>
</defs>
</svg>
