<svg width="40" height="40" viewBox="0 0 40 40" fill="none" xmlns="http://www.w3.org/2000/svg">
<rect width="40" height="40" rx="4" fill="#F8F4FE"/>
<g clip-path="url(#clip0_9_443)">
<path d="M28.1945 23.4478C28.9154 21.7348 29.0814 19.8389 28.669 18.0267C28.2566 16.2145 27.2867 14.5771 25.8955 13.3447C24.5043 12.1123 22.7619 11.347 20.9132 11.1562C19.0645 10.9654 17.2025 11.3588 15.5889 12.2811L14.4867 10.3511C16.173 9.38734 18.0825 8.88262 20.0247 8.8873C21.9669 8.89198 23.874 9.40589 25.5556 10.3778C30.5445 13.2578 32.4556 19.4244 30.13 24.5667L31.6211 25.4267L26.9934 27.8867L26.81 22.6489L28.1945 23.4478ZM11.8056 16.5522C11.0846 18.2652 10.9187 20.1611 11.331 21.9733C11.7434 23.7855 12.7134 25.4229 14.1046 26.6553C15.4957 27.8876 17.2382 28.653 19.0869 28.8438C20.9356 29.0346 22.7976 28.6412 24.4111 27.7189L25.5134 29.6489C23.8271 30.6126 21.9176 31.1174 19.9754 31.1127C18.0331 31.108 16.1261 30.5941 14.4445 29.6222C9.45559 26.7422 7.54447 20.5755 9.87003 15.4333L8.37781 14.5744L13.0056 12.1144L13.1889 17.3522L11.8045 16.5533L11.8056 16.5522ZM21.5723 23.1422L18.4267 20L15.2845 23.1422L13.7134 21.5711L18.4278 16.8578L21.5711 20L24.7145 16.8578L26.2856 18.4289L21.5711 23.1422H21.5723Z" fill="url(#paint0_linear_9_443)"/>
</g>
<defs>
<linearGradient id="paint0_linear_9_443" x1="19.9995" y1="8.88727" x2="36.0964" y2="25.7214" gradientUnits="userSpaceOnUse">
<stop stop-color="#7B36FD"/>
<stop offset="1" stop-color="#AA5FCF"/>
</linearGradient>
<clipPath id="clip0_9_443">
<rect width="26.6667" height="26.6667" fill="white" transform="translate(6.66669 6.66666)"/>
</clipPath>
</defs>
</svg>
