<svg width="40" height="40" viewBox="0 0 40 40" fill="none" xmlns="http://www.w3.org/2000/svg">
<rect width="40" height="40" rx="4" fill="#F8F4FE"/>
<g clip-path="url(#clip0_9_432)">
<path d="M22.2222 8.88889C24.2555 8.88792 26.2277 9.58407 27.8098 10.8612C29.392 12.1384 30.4884 13.9194 30.9163 15.9072C31.3442 17.895 31.0777 19.9693 30.1612 21.7844C29.2447 23.5994 27.7336 25.0454 25.88 25.8811C25.2875 27.191 24.3861 28.3376 23.2532 29.2227C22.1202 30.1077 20.7895 30.7048 19.3751 30.9626C17.9608 31.2204 16.505 31.1313 15.1326 30.703C13.7603 30.2746 12.5123 29.5198 11.4957 28.5032C10.4791 27.4866 9.72426 26.2386 9.2959 24.8663C8.86755 23.4939 8.77846 22.0381 9.03629 20.6237C9.29411 19.2094 9.89114 17.8787 10.7762 16.7457C11.6612 15.6128 12.8079 14.7114 14.1178 14.1189C14.8224 12.5599 15.9618 11.2372 17.3993 10.3096C18.8368 9.3819 20.5114 8.88862 22.2222 8.88889ZM17.7778 15.5556C16.9023 15.5556 16.0354 15.728 15.2266 16.063C14.4177 16.3981 13.6828 16.8891 13.0637 17.5082C12.4447 18.1272 11.9536 18.8622 11.6186 19.671C11.2835 20.4798 11.1111 21.3467 11.1111 22.2222C11.1111 23.0977 11.2835 23.9646 11.6186 24.7734C11.9536 25.5823 12.4447 26.3172 13.0637 26.9363C13.6828 27.5553 14.4177 28.0464 15.2266 28.3814C16.0354 28.7164 16.9023 28.8889 17.7778 28.8889C19.5459 28.8889 21.2416 28.1865 22.4918 26.9363C23.7421 25.686 24.4444 23.9903 24.4444 22.2222C24.4444 20.4541 23.7421 18.7584 22.4918 17.5082C21.2416 16.2579 19.5459 15.5556 17.7778 15.5556ZM18.8889 16.6667V17.7778H21.1111V20H16.6667C16.5278 19.9997 16.3939 20.0515 16.2914 20.145C16.1888 20.2385 16.1249 20.3671 16.1124 20.5054C16.0998 20.6436 16.1395 20.7816 16.2236 20.892C16.3077 21.0025 16.4301 21.0775 16.5667 21.1022L16.6667 21.1111H18.8889C19.6256 21.1111 20.3321 21.4038 20.8531 21.9247C21.374 22.4456 21.6667 23.1522 21.6667 23.8889C21.6667 24.6256 21.374 25.3321 20.8531 25.8531C20.3321 26.374 19.6256 26.6667 18.8889 26.6667V27.7778H16.6667V26.6667H14.4444V24.4444H18.8889C19.0277 24.4447 19.1616 24.393 19.2642 24.2994C19.3668 24.2059 19.4306 24.0773 19.4432 23.9391C19.4557 23.8008 19.4161 23.6629 19.332 23.5524C19.2479 23.4419 19.1255 23.367 18.9889 23.3422L18.8889 23.3333H16.6667C15.93 23.3333 15.2234 23.0407 14.7025 22.5197C14.1815 21.9988 13.8889 21.2923 13.8889 20.5556C13.8889 19.8188 14.1815 19.1123 14.7025 18.5914C15.2234 18.0704 15.93 17.7778 16.6667 17.7778V16.6667H18.8889ZM22.2222 11.1111C21.2808 11.11 20.3498 11.3088 19.4909 11.6944C18.632 12.08 17.8648 12.6435 17.24 13.3478C18.4958 13.2715 19.7536 13.4628 20.93 13.9088C22.1064 14.3549 23.1748 15.0456 24.0644 15.9353C24.954 16.825 25.6446 17.8934 26.0905 19.0699C26.5364 20.2464 26.7275 21.5042 26.6511 22.76C27.6613 21.8618 28.3747 20.6777 28.6965 19.3648C29.0183 18.0519 28.9333 16.6721 28.4529 15.4086C27.9725 14.145 27.1194 13.0574 26.0066 12.2899C24.8938 11.5224 23.574 11.1113 22.2222 11.1111Z" fill="url(#paint0_linear_9_432)"/>
</g>
<defs>
<linearGradient id="paint0_linear_9_432" x1="20.0038" y1="8.88889" x2="36.1113" y2="25.0003" gradientUnits="userSpaceOnUse">
<stop stop-color="#7B36FD"/>
<stop offset="1" stop-color="#AA5FCF"/>
</linearGradient>
<clipPath id="clip0_9_432">
<rect width="26.6667" height="26.6667" fill="white" transform="translate(6.66666 6.66667)"/>
</clipPath>
</defs>
</svg>
