<svg width="40" height="40" viewBox="0 0 40 40" fill="none" xmlns="http://www.w3.org/2000/svg">
<rect width="40" height="40" rx="4" fill="#F8F4FE"/>
<g clip-path="url(#clip0_9_509)">
<path d="M12.0811 10H27.9189C28.0942 9.99998 28.2671 10.0414 28.4233 10.121C28.5795 10.2006 28.7147 10.316 28.8178 10.4578L33.0656 16.2978C33.1411 16.4017 33.1782 16.5286 33.1708 16.6568C33.1633 16.785 33.1116 16.9067 33.0244 17.0011L20.4078 30.6689C20.3078 30.7769 20.1691 30.8409 20.022 30.8467C19.8749 30.8526 19.7315 30.7998 19.6233 30.7C19.6156 30.6933 15.4011 26.1278 6.97556 17.0011C6.88845 16.9067 6.83675 16.785 6.82926 16.6568C6.82176 16.5286 6.85893 16.4017 6.93445 16.2978L11.1822 10.4578C11.2853 10.316 11.4205 10.2006 11.5767 10.121C11.733 10.0414 11.9058 9.99998 12.0811 10ZM12.6478 12.2222L9.53667 16.5L20 27.8333L30.4633 16.5L27.3522 12.2222H12.6478Z" fill="url(#paint0_linear_9_509)"/>
</g>
<defs>
<linearGradient id="paint0_linear_9_509" x1="20" y1="10" x2="34.7093" y2="28.5873" gradientUnits="userSpaceOnUse">
<stop stop-color="#7B36FD"/>
<stop offset="1" stop-color="#AA5FCF"/>
</linearGradient>
<clipPath id="clip0_9_509">
<rect width="26.6667" height="26.6667" fill="white" transform="translate(6.66669 6.66666)"/>
</clipPath>
</defs>
</svg>
