<svg width="40" height="40" viewBox="0 0 40 40" fill="none" xmlns="http://www.w3.org/2000/svg">
<rect width="40" height="40" rx="4" fill="#F8F4FE"/>
<g clip-path="url(#clip0_9_461)">
<path d="M28.1943 23.4478C28.9153 21.7348 29.0813 19.8389 28.6689 18.0267C28.2565 16.2145 27.2866 14.5771 25.8954 13.3447C24.5042 12.1124 22.7618 11.347 20.9131 11.1562C19.0643 10.9654 17.2023 11.3588 15.5888 12.2811L14.4866 10.3511C16.1728 9.38736 18.0823 8.88264 20.0246 8.88732C21.9668 8.89199 23.8739 9.40591 25.5555 10.3778C30.5444 13.2578 32.4555 19.4245 30.1299 24.5667L31.621 25.4267L26.9932 27.8867L26.8099 22.6489L28.1943 23.4478ZM11.8055 16.5522C11.0845 18.2652 10.9186 20.1611 11.3309 21.9733C11.7433 23.7855 12.7133 25.4229 14.1044 26.6553C15.4956 27.8877 17.238 28.653 19.0868 28.8438C20.9355 29.0346 22.7975 28.6412 24.411 27.7189L25.5132 29.6489C23.827 30.6127 21.9175 31.1174 19.9752 31.1127C18.033 31.108 16.1259 30.5941 14.4444 29.6222C9.45546 26.7422 7.54435 20.5756 9.86991 15.4333L8.37769 14.5745L13.0055 12.1145L13.1888 17.3522L11.8044 16.5533L11.8055 16.5522ZM16.111 22.2222H22.2221C22.3695 22.2222 22.5108 22.1637 22.615 22.0595C22.7192 21.9553 22.7777 21.814 22.7777 21.6667C22.7777 21.5193 22.7192 21.378 22.615 21.2738C22.5108 21.1696 22.3695 21.1111 22.2221 21.1111H17.7777C17.041 21.1111 16.3344 20.8185 15.8135 20.2975C15.2926 19.7766 14.9999 19.0701 14.9999 18.3333C14.9999 17.5966 15.2926 16.8901 15.8135 16.3692C16.3344 15.8482 17.041 15.5556 17.7777 15.5556H18.8888V14.4445H21.111V15.5556H23.8888V17.7778H17.7777C17.6303 17.7778 17.489 17.8363 17.3848 17.9405C17.2807 18.0447 17.2221 18.186 17.2221 18.3333C17.2221 18.4807 17.2807 18.622 17.3848 18.7262C17.489 18.8304 17.6303 18.8889 17.7777 18.8889H22.2221C22.9588 18.8889 23.6654 19.1816 24.1863 19.7025C24.7072 20.2234 24.9999 20.93 24.9999 21.6667C24.9999 22.4034 24.7072 23.1099 24.1863 23.6309C23.6654 24.1518 22.9588 24.4444 22.2221 24.4444H21.111V25.5556H18.8888V24.4444H16.111V22.2222Z" fill="url(#paint0_linear_9_461)"/>
</g>
<defs>
<linearGradient id="paint0_linear_9_461" x1="19.9994" y1="8.88728" x2="36.0962" y2="25.7214" gradientUnits="userSpaceOnUse">
<stop stop-color="#7B36FD"/>
<stop offset="1" stop-color="#AA5FCF"/>
</linearGradient>
<clipPath id="clip0_9_461">
<rect width="26.6667" height="26.6667" fill="white" transform="translate(6.66663 6.66667)"/>
</clipPath>
</defs>
</svg>
