<svg width="40" height="40" viewBox="0 0 40 40" fill="none" xmlns="http://www.w3.org/2000/svg">
<rect width="40" height="40" rx="4" fill="#F8F4FE"/>
<path d="M26.5 28.6667H13.5V30.8333H11.3333V28.6667H10.25C9.96264 28.6667 9.68709 28.5525 9.48393 28.3494C9.28076 28.1462 9.16663 27.8707 9.16663 27.5833V11.3333C9.16663 11.046 9.28076 10.7705 9.48393 10.5673C9.68709 10.3641 9.96264 10.25 10.25 10.25H29.75C30.0373 10.25 30.3128 10.3641 30.516 10.5673C30.7192 10.7705 30.8333 11.046 30.8333 11.3333V27.5833C30.8333 27.8707 30.7192 28.1462 30.516 28.3494C30.3128 28.5525 30.0373 28.6667 29.75 28.6667H28.6666V30.8333H26.5V28.6667ZM11.3333 26.5H28.6666V12.4167H11.3333V26.5ZM21.0833 22.0302V25.4167H18.9166V22.0302C17.8978 21.764 17.0106 21.136 16.4208 20.2636C15.8311 19.3912 15.579 18.3339 15.7117 17.2893C15.8443 16.2446 16.3527 15.2839 17.1418 14.5866C17.931 13.8893 18.9469 13.5031 20 13.5C21.0554 13.499 22.075 13.8832 22.8672 14.5805C23.6595 15.2778 24.1701 16.2403 24.303 17.2874C24.436 18.3344 24.1823 19.394 23.5895 20.2672C22.9966 21.1405 22.1055 21.7673 21.0833 22.0302ZM20 20C20.5746 20 21.1257 19.7717 21.532 19.3654C21.9384 18.9591 22.1666 18.408 22.1666 17.8333C22.1666 17.2587 21.9384 16.7076 21.532 16.3013C21.1257 15.8949 20.5746 15.6667 20 15.6667C19.4253 15.6667 18.8742 15.8949 18.4679 16.3013C18.0616 16.7076 17.8333 17.2587 17.8333 17.8333C17.8333 18.408 18.0616 18.9591 18.4679 19.3654C18.8742 19.7717 19.4253 20 20 20Z" fill="url(#paint0_linear_9_339)"/>
<defs>
<linearGradient id="paint0_linear_9_339" x1="20" y1="10.25" x2="34.9029" y2="25.9373" gradientUnits="userSpaceOnUse">
<stop stop-color="#7B36FD"/>
<stop offset="1" stop-color="#AA5FCF"/>
</linearGradient>
</defs>
</svg>
