<svg width="40" height="40" viewBox="0 0 40 40" fill="none" xmlns="http://www.w3.org/2000/svg">
<rect width="40" height="40" rx="4" fill="#F8F4FE"/>
<path d="M19.9999 11.3333C26.5812 11.3333 31.9166 14.2432 31.9166 17.8333V22.1667C31.9166 25.7568 26.5812 28.6667 19.9999 28.6667C13.5357 28.6667 8.27392 25.8597 8.08867 22.3584L8.08325 22.1667V17.8333C8.08325 14.2432 13.4187 11.3333 19.9999 11.3333ZM19.9999 24.3333C15.9699 24.3333 12.4058 23.2424 10.2499 21.5708V22.1667C10.2499 24.2055 14.4565 26.5 19.9999 26.5C25.4274 26.5 29.5744 24.3008 29.7445 22.2945L29.7499 22.1667L29.751 21.5708C27.5952 23.2413 24.031 24.3333 19.9999 24.3333ZM19.9999 13.5C14.4565 13.5 10.2499 15.7945 10.2499 17.8333C10.2499 19.8722 14.4565 22.1667 19.9999 22.1667C25.5433 22.1667 29.7499 19.8722 29.7499 17.8333C29.7499 15.7945 25.5433 13.5 19.9999 13.5Z" fill="url(#paint0_linear_94_477)"/>
<defs>
<linearGradient id="paint0_linear_94_477" x1="19.9999" y1="11.3333" x2="31.9549" y2="27.7715" gradientUnits="userSpaceOnUse">
<stop stop-color="#7B36FD"/>
<stop offset="1" stop-color="#AA5FCF"/>
</linearGradient>
</defs>
</svg>
