<svg width="40" height="40" viewBox="0 0 40 40" fill="none" xmlns="http://www.w3.org/2000/svg">
<rect width="40" height="40" rx="4" fill="#F8F4FE"/>
<g clip-path="url(#clip0_9_314)">
<path d="M12.2222 16.6667C12.5169 16.6667 12.7995 16.7837 13.0079 16.9921C13.2163 17.2005 13.3333 17.4831 13.3333 17.7778C15.079 17.7752 16.7744 18.3625 18.1444 19.4444H20.5555C22.0367 19.4444 23.3667 20.0889 24.2822 21.1111H27.7778C28.8281 21.1108 29.8569 21.4083 30.745 21.9689C31.6331 22.5296 32.3441 23.3306 32.7955 24.2789C30.1678 27.7467 25.9133 30 21.1111 30C18.0111 30 15.3889 29.33 13.2667 28.1578C13.1889 28.3723 13.0469 28.5576 12.86 28.6884C12.6731 28.8193 12.4504 28.8893 12.2222 28.8889H8.88888C8.5942 28.8889 8.31158 28.7718 8.10321 28.5634C7.89483 28.3551 7.77777 28.0725 7.77777 27.7778V17.7778C7.77777 17.4831 7.89483 17.2005 8.10321 16.9921C8.31158 16.7837 8.5942 16.6667 8.88888 16.6667H12.2222ZM13.3344 20L13.3333 25.58L13.3833 25.6156C15.3778 27.0156 17.9755 27.7778 21.1111 27.7778C24.4489 27.7778 27.5544 26.4933 29.8167 24.3L29.9644 24.1522L29.8311 24.0411C29.3064 23.6302 28.6704 23.3863 28.0055 23.3411L27.7778 23.3333H25.4322C25.5122 23.6911 25.5555 24.0622 25.5555 24.4444V25.5556H15.5555V23.3333L23.1 23.3322L23.0622 23.2456C22.8493 22.8006 22.5217 22.4203 22.1132 22.1438C21.7047 21.8673 21.23 21.7046 20.7378 21.6722L20.5555 21.6667H17.3C16.7837 21.1386 16.167 20.7191 15.4861 20.4329C14.8053 20.1466 14.0741 19.9995 13.3355 20H13.3344ZM11.1111 18.8889H9.99999V26.6667H11.1111V18.8889ZM26.6667 12.2222C27.5507 12.2222 28.3986 12.5734 29.0237 13.1985C29.6488 13.8237 30 14.6715 30 15.5556C30 16.4396 29.6488 17.2875 29.0237 17.9126C28.3986 18.5377 27.5507 18.8889 26.6667 18.8889C25.7826 18.8889 24.9348 18.5377 24.3096 17.9126C23.6845 17.2875 23.3333 16.4396 23.3333 15.5556C23.3333 14.6715 23.6845 13.8237 24.3096 13.1985C24.9348 12.5734 25.7826 12.2222 26.6667 12.2222ZM26.6667 14.4444C26.372 14.4444 26.0894 14.5615 25.881 14.7699C25.6726 14.9783 25.5555 15.2609 25.5555 15.5556C25.5555 15.8502 25.6726 16.1329 25.881 16.3412C26.0894 16.5496 26.372 16.6667 26.6667 16.6667C26.9613 16.6667 27.244 16.5496 27.4523 16.3412C27.6607 16.1329 27.7778 15.8502 27.7778 15.5556C27.7778 15.2609 27.6607 14.9783 27.4523 14.7699C27.244 14.5615 26.9613 14.4444 26.6667 14.4444ZM18.8889 8.88889C19.7729 8.88889 20.6208 9.24008 21.2459 9.8652C21.871 10.4903 22.2222 11.3382 22.2222 12.2222C22.2222 13.1063 21.871 13.9541 21.2459 14.5792C20.6208 15.2044 19.7729 15.5556 18.8889 15.5556C18.0048 15.5556 17.157 15.2044 16.5319 14.5792C15.9067 13.9541 15.5555 13.1063 15.5555 12.2222C15.5555 11.3382 15.9067 10.4903 16.5319 9.8652C17.157 9.24008 18.0048 8.88889 18.8889 8.88889ZM18.8889 11.1111C18.5942 11.1111 18.3116 11.2282 18.1032 11.4365C17.8948 11.6449 17.7778 11.9275 17.7778 12.2222C17.7778 12.5169 17.8948 12.7995 18.1032 13.0079C18.3116 13.2163 18.5942 13.3333 18.8889 13.3333C19.1836 13.3333 19.4662 13.2163 19.6746 13.0079C19.8829 12.7995 20 12.5169 20 12.2222C20 11.9275 19.8829 11.6449 19.6746 11.4365C19.4662 11.2282 19.1836 11.1111 18.8889 11.1111Z" fill="url(#paint0_linear_9_314)"/>
</g>
<defs>
<linearGradient id="paint0_linear_9_314" x1="20.2867" y1="8.88889" x2="35.3738" y2="26.768" gradientUnits="userSpaceOnUse">
<stop stop-color="#7B36FD"/>
<stop offset="1" stop-color="#AA5FCF"/>
</linearGradient>
<clipPath id="clip0_9_314">
<rect width="26.6667" height="26.6667" fill="white" transform="translate(6.66666 6.66666)"/>
</clipPath>
</defs>
</svg>
