<svg width="40" height="40" viewBox="0 0 40 40" fill="none" xmlns="http://www.w3.org/2000/svg">
<rect width="40" height="40" rx="4" fill="#F8F4FE"/>
<g clip-path="url(#clip0_9_324)">
<path fill-rule="evenodd" clip-rule="evenodd" d="M21.98 13.4969C22.3776 13.4969 22.7 13.1618 22.7 12.7484C22.7 12.3351 22.3776 12 21.98 12C21.5824 12 21.26 12.3351 21.26 12.7484C21.26 13.1618 21.5824 13.4969 21.98 13.4969ZM21.98 13.1227C22.1788 13.1227 22.34 12.9551 22.34 12.7484C22.34 12.5418 22.1788 12.3742 21.98 12.3742C21.7812 12.3742 21.62 12.5418 21.62 12.7484C21.62 12.9551 21.7812 13.1227 21.98 13.1227Z" fill="url(#paint0_linear_9_324)"/>
<path fill-rule="evenodd" clip-rule="evenodd" d="M24.945 15.368C25.116 15.1694 25.22 14.9071 25.22 14.6196C25.22 13.9995 24.7365 13.4969 24.14 13.4969C23.5435 13.4969 23.06 13.9995 23.06 14.6196C23.06 14.9071 23.164 15.1694 23.335 15.368H21.1698C20.9636 13.5762 19.4965 12.1871 17.7173 12.1871C15.938 12.1871 14.4709 13.5762 14.2648 15.368H12.26C11.7629 15.368 11.36 15.7869 11.36 16.3036C11.36 16.767 11.6841 17.1517 12.1095 17.2261C11.4023 18.5622 11 20.0972 11 21.7298C11 24.364 12.0473 26.7439 13.7326 28.4441C12.8815 30.1909 12.5514 31.6875 13.0014 31.9576C13.4294 32.2144 14.4286 31.2817 15.4111 29.7796C16.7548 30.6091 18.3239 31.0854 20 31.0854C21.6937 31.0854 23.2782 30.5991 24.6312 29.7534C25.6191 31.2708 26.6274 32.2159 27.0579 31.9576C27.5114 31.6854 27.1728 30.1679 26.3071 28.4039C27.9692 26.7064 29 24.3433 29 21.7298C29 20.0972 28.5977 18.5622 27.8905 17.2261C28.3159 17.1517 28.64 16.767 28.64 16.3036C28.64 15.7869 28.2371 15.368 27.74 15.368H24.945ZM24.77 14.6196C24.77 14.9813 24.4879 15.2745 24.14 15.2745C23.7921 15.2745 23.51 14.9813 23.51 14.6196C23.51 14.2579 23.7921 13.9647 24.14 13.9647C24.4879 13.9647 24.77 14.2579 24.77 14.6196ZM15.1736 15.368C15.373 14.0947 16.436 13.1227 17.7173 13.1227C18.9986 13.1227 20.0615 14.0947 20.2609 15.368H15.1736ZM14.2393 17.2391C13.3346 18.4905 12.8 20.0437 12.8 21.7298C12.8 25.8634 16.0236 29.2143 20 29.2143C23.9764 29.2143 27.2 25.8634 27.2 21.7298C27.2 20.0437 26.6654 18.4905 25.7607 17.2391H14.2393Z" fill="url(#paint1_linear_9_324)"/>
</g>
<defs>
<linearGradient id="paint0_linear_9_324" x1="20" y1="12" x2="34.4195" y2="24.9776" gradientUnits="userSpaceOnUse">
<stop stop-color="#7B36FD"/>
<stop offset="1" stop-color="#AA5FCF"/>
</linearGradient>
<linearGradient id="paint1_linear_9_324" x1="20" y1="12" x2="34.4195" y2="24.9776" gradientUnits="userSpaceOnUse">
<stop stop-color="#7B36FD"/>
<stop offset="1" stop-color="#AA5FCF"/>
</linearGradient>
<clipPath id="clip0_9_324">
<rect width="26.6667" height="26.6667" fill="white" transform="translate(6.66669 6.66669)"/>
</clipPath>
</defs>
</svg>
