<svg width="40" height="40" viewBox="0 0 40 40" fill="none" xmlns="http://www.w3.org/2000/svg">
<rect width="40" height="40" rx="4" fill="#F8F4FE"/>
<g clip-path="url(#clip0_9_319)">
<path d="M10 10H30C30.2947 10 30.5773 10.1171 30.7857 10.3254C30.994 10.5338 31.1111 10.8164 31.1111 11.1111V28.8889C31.1111 29.1836 30.994 29.4662 30.7857 29.6746C30.5773 29.8829 30.2947 30 30 30H10C9.70531 30 9.4227 29.8829 9.21432 29.6746C9.00595 29.4662 8.88889 29.1836 8.88889 28.8889V11.1111C8.88889 10.8164 9.00595 10.5338 9.21432 10.3254C9.4227 10.1171 9.70531 10 10 10V10ZM11.1111 12.2222V27.7778H28.8889V12.2222H11.1111ZM14.4444 21.1111H16.6667V25.5556H14.4444V21.1111ZM18.8889 14.4444H21.1111V25.5556H18.8889V14.4444ZM23.3333 17.7778H25.5556V25.5556H23.3333V17.7778Z" fill="url(#paint0_linear_9_319)"/>
</g>
<defs>
<linearGradient id="paint0_linear_9_319" x1="20" y1="10" x2="34.4195" y2="26.0217" gradientUnits="userSpaceOnUse">
<stop stop-color="#7B36FD"/>
<stop offset="1" stop-color="#AA5FCF"/>
</linearGradient>
<clipPath id="clip0_9_319">
<rect width="26.6667" height="26.6667" fill="white" transform="translate(6.66666 6.66669)"/>
</clipPath>
</defs>
</svg>
